<svg width="24" height="24" viewBox="0 0 24 24" fill="none" xmlns="http://www.w3.org/2000/svg">
<g clip-path="url(#clip0_63_467)">
<path d="M12 0C8.8174 0 5.76516 1.26428 3.51472 3.51472C1.26428 5.76516 0 8.8174 0 12C0 15.1826 1.26428 18.2348 3.51472 20.4853C5.76516 22.7357 8.8174 24 12 24C15.1826 24 18.2348 22.7357 20.4853 20.4853C22.7357 18.2348 24 15.1826 24 12C24 8.8174 22.7357 5.76516 20.4853 3.51472C18.2348 1.26428 15.1826 0 12 0V0ZM12 21.75C9.41414 21.75 6.93419 20.7228 5.10571 18.8943C3.27723 17.0658 2.25 14.5859 2.25 12C2.25 9.41414 3.27723 6.93419 5.10571 5.10571C6.93419 3.27723 9.41414 2.25 12 2.25C14.5859 2.25 17.0658 3.27723 18.8943 5.10571C20.7228 6.93419 21.75 9.41414 21.75 12C21.75 14.5859 20.7228 17.0658 18.8943 18.8943C17.0658 20.7228 14.5859 21.75 12 21.75Z" fill="#1C1C1C"/>
<path d="M16.4571 6.70711C16.0666 6.31658 15.4334 6.31658 15.0429 6.70711L12.7071 9.04289C12.3166 9.43342 11.6834 9.43342 11.2929 9.04289L8.95711 6.70711C8.56658 6.31658 7.93342 6.31658 7.54289 6.70711L6.70711 7.54289C6.31658 7.93342 6.31658 8.56658 6.70711 8.95711L9.04289 11.2929C9.43342 11.6834 9.43342 12.3166 9.04289 12.7071L6.70711 15.0429C6.31658 15.4334 6.31658 16.0666 6.70711 16.4571L7.54289 17.2929C7.93342 17.6834 8.56658 17.6834 8.95711 17.2929L11.2929 14.9571C11.6834 14.5666 12.3166 14.5666 12.7071 14.9571L15.0429 17.2929C15.4334 17.6834 16.0666 17.6834 16.4571 17.2929L17.2929 16.4571C17.6834 16.0666 17.6834 15.4334 17.2929 15.0429L14.9571 12.7071C14.5666 12.3166 14.5666 11.6834 14.9571 11.2929L17.2929 8.95711C17.6834 8.56658 17.6834 7.93342 17.2929 7.54289L16.4571 6.70711Z" fill="#1C1C1C"/>
</g>
<defs>
<clipPath id="clip0_63_467">
<rect width="24" height="24" fill="white"/>
</clipPath>
</defs>
</svg>
