<svg width="24" height="24" viewBox="0 0 24 24" fill="none" xmlns="http://www.w3.org/2000/svg">
<path d="M20.375 4H16.5C15.9477 4 15.5 3.55228 15.5 3V2.125C15.5 1.507 14.993 1 14.375 1H9.125C8.507 1 8 1.507 8 2.125V3C8 3.55228 7.55228 4 7 4H3.125C2.5055 4 2 4.5055 2 5.125V6C2 6.55228 2.44772 7 3 7H20.5C21.0523 7 21.5 6.55228 21.5 6V5.125C21.5 4.5055 20.993 4 20.375 4ZM14 3.25975C14 3.66858 13.6686 4 13.2598 4H10.2402C9.83142 4 9.5 3.66858 9.5 3.25975C9.5 2.85092 9.83142 2.5195 10.2402 2.5195H13.2598C13.6686 2.5195 14 2.85092 14 3.25975Z" fill="#1C1C1C"/>
<path d="M4.5 7C3.94772 7 3.5 7.44772 3.5 8V22C3.5 22.825 4.175 23.5 5 23.5H18.5C19.325 23.5 20 22.825 20 22V8C20 7.44772 19.5523 7 19 7H4.5ZM8 19.75C8 20.1642 7.66421 20.5 7.25 20.5C6.83579 20.5 6.5 20.1642 6.5 19.75V10.75C6.5 10.3358 6.83579 10 7.25 10C7.66421 10 8 10.3358 8 10.75V19.75ZM11 19.75C11 20.1642 10.6642 20.5 10.25 20.5C9.83579 20.5 9.5 20.1642 9.5 19.75V10.75C9.5 10.3358 9.83579 10 10.25 10C10.6642 10 11 10.3358 11 10.75V19.75ZM14 19.75C14 20.1642 13.6642 20.5 13.25 20.5C12.8358 20.5 12.5 20.1642 12.5 19.75V10.75C12.5 10.3358 12.8358 10 13.25 10C13.6642 10 14 10.3358 14 10.75V19.75ZM17 19.75C17 20.1642 16.6642 20.5 16.25 20.5C15.8358 20.5 15.5 20.1642 15.5 19.75V10.75C15.5 10.3358 15.8358 10 16.25 10C16.6642 10 17 10.3358 17 10.75V19.75Z" fill="#1C1C1C"/>
</svg>
