<svg width="128" height="128" viewBox="0 0 128 128" fill="none" xmlns="http://www.w3.org/2000/svg">
<path d="M64 100.308C84.0522 100.308 100.308 84.0522 100.308 64C100.308 43.9478 84.0522 27.6923 64 27.6923C43.9478 27.6923 27.6923 43.9478 27.6923 64C27.6923 84.0522 43.9478 100.308 64 100.308Z" fill="#1C1C1C" fill-opacity="0.2"/>
<path fill-rule="evenodd" clip-rule="evenodd" d="M64 109.538C89.1502 109.538 109.538 89.1502 109.538 64C109.538 38.8498 89.1502 18.4615 64 18.4615C38.8498 18.4615 18.4615 38.8498 18.4615 64C18.4615 89.1502 38.8498 109.538 64 109.538ZM64 103.631C85.8875 103.631 103.631 85.8875 103.631 64C103.631 42.1125 85.8875 24.3692 64 24.3692C42.1125 24.3692 24.3692 42.1125 24.3692 64C24.3692 85.8875 42.1125 103.631 64 103.631Z" fill="#1C1C1C" fill-opacity="0.2"/>
<path fill-rule="evenodd" clip-rule="evenodd" d="M118.769 64C118.769 94.2482 94.2482 118.769 64 118.769C33.7518 118.769 9.23077 94.2482 9.23077 64C9.23077 33.7518 33.7518 9.23077 64 9.23077C94.2482 9.23077 118.769 33.7518 118.769 64ZM112.862 64C112.862 90.9855 90.9855 112.862 64 112.862C37.0145 112.862 15.1385 90.9855 15.1385 64C15.1385 37.0145 37.0145 15.1385 64 15.1385C90.9855 15.1385 112.862 37.0145 112.862 64Z" fill="#1C1C1C" fill-opacity="0.2"/>
<path fill-rule="evenodd" clip-rule="evenodd" d="M128 64C128 99.3462 99.3462 128 64 128C28.6538 128 0 99.3462 0 64C0 28.6538 28.6538 0 64 0C99.3462 0 128 28.6538 128 64ZM122.092 64C122.092 96.0835 96.0835 122.092 64 122.092C31.9165 122.092 5.90769 96.0835 5.90769 64C5.90769 31.9165 31.9165 5.90769 64 5.90769C96.0835 5.90769 122.092 31.9165 122.092 64Z" fill="#1C1C1C" fill-opacity="0.2"/>
</svg>
