<svg width="304" height="48" viewBox="0 0 304 48" fill="none" xmlns="http://www.w3.org/2000/svg">
<path d="M24 37.6154C31.5196 37.6154 37.6154 31.5196 37.6154 24C37.6154 16.4804 31.5196 10.3846 24 10.3846C16.4804 10.3846 10.3846 16.4804 10.3846 24C10.3846 31.5196 16.4804 37.6154 24 37.6154Z" fill="url(#paint0_linear_62:153)"/>
<path fill-rule="evenodd" clip-rule="evenodd" d="M24 41.0769C33.4313 41.0769 41.0769 33.4313 41.0769 24C41.0769 14.5687 33.4313 6.92308 24 6.92308C14.5687 6.92308 6.92308 14.5687 6.92308 24C6.92308 33.4313 14.5687 41.0769 24 41.0769ZM24 38.8615C32.2078 38.8615 38.8615 32.2078 38.8615 24C38.8615 15.7922 32.2078 9.13846 24 9.13846C15.7922 9.13846 9.13846 15.7922 9.13846 24C9.13846 32.2078 15.7922 38.8615 24 38.8615Z" fill="url(#paint1_linear_62:153)"/>
<path fill-rule="evenodd" clip-rule="evenodd" d="M44.5385 24C44.5385 35.3431 35.3431 44.5385 24 44.5385C12.6569 44.5385 3.46154 35.3431 3.46154 24C3.46154 12.6569 12.6569 3.46154 24 3.46154C35.3431 3.46154 44.5385 12.6569 44.5385 24ZM42.3231 24C42.3231 34.1196 34.1196 42.3231 24 42.3231C13.8804 42.3231 5.67692 34.1196 5.67692 24C5.67692 13.8804 13.8804 5.67692 24 5.67692C34.1196 5.67692 42.3231 13.8804 42.3231 24Z" fill="url(#paint2_linear_62:153)"/>
<path fill-rule="evenodd" clip-rule="evenodd" d="M48 24C48 37.2548 37.2548 48 24 48C10.7452 48 0 37.2548 0 24C0 10.7452 10.7452 0 24 0C37.2548 0 48 10.7452 48 24ZM45.7846 24C45.7846 36.0313 36.0313 45.7846 24 45.7846C11.9687 45.7846 2.21538 36.0313 2.21538 24C2.21538 11.9687 11.9687 2.21538 24 2.21538C36.0313 2.21538 45.7846 11.9687 45.7846 24Z" fill="url(#paint3_linear_62:153)"/>
<path d="M77.8269 36.9231H72.4788V26.002H62.4577V36.9231H57.0923V11.6193H62.4577V21.5366H72.4788V11.6193H77.8269V36.9231Z" fill="#1C1C1C"/>
<path d="M100.576 36.9231H86.0031V11.6193H100.576V16.0154H91.3684V21.5712H99.9357V25.9673H91.3684V32.4923H100.576V36.9231Z" fill="#1C1C1C"/>
<path d="M107.645 36.9231V11.6193H113.01V32.4923H123.273V36.9231H107.645Z" fill="#1C1C1C"/>
<path d="M134.825 23.527H136.59C138.24 23.527 139.475 23.2039 140.294 22.5577C141.113 21.9 141.523 20.9481 141.523 19.702C141.523 18.4443 141.177 17.5154 140.484 16.9154C139.803 16.3154 138.73 16.0154 137.265 16.0154H134.825V23.527ZM146.94 19.5116C146.94 22.2346 146.086 24.3173 144.378 25.7596C142.682 27.202 140.265 27.9231 137.127 27.9231H134.825V36.9231H129.459V11.6193H137.542C140.611 11.6193 142.942 12.2827 144.534 13.6096C146.138 14.925 146.94 16.8923 146.94 19.5116Z" fill="#1C1C1C"/>
<path d="M153.489 12.2135H161.364C164.953 12.2135 167.555 12.727 169.17 13.7539C170.797 14.7693 171.61 16.3904 171.61 18.6174C171.61 20.1289 171.253 21.3693 170.537 22.3385C169.833 23.3077 168.893 23.8904 167.716 24.0866V24.2597C169.32 24.6174 170.474 25.2866 171.178 26.2674C171.893 27.2481 172.251 28.552 172.251 30.1789C172.251 32.4866 171.414 34.2866 169.741 35.5789C168.08 36.8712 165.818 37.5174 162.957 37.5174H153.489V12.2135ZM158.855 22.2347H161.97C163.424 22.2347 164.474 22.0097 165.12 21.5597C165.778 21.1097 166.107 20.3654 166.107 19.327C166.107 18.3577 165.749 17.6654 165.033 17.25C164.33 16.8231 163.21 16.6097 161.676 16.6097H158.855V22.2347ZM158.855 26.4924V33.0866H162.351C163.828 33.0866 164.918 32.8039 165.622 32.2385C166.326 31.6731 166.678 30.8077 166.678 29.6424C166.678 27.5424 165.178 26.4924 162.178 26.4924H158.855Z" fill="url(#paint4_linear_62:153)"/>
<path d="M193.65 37.5174H179.077V12.2135H193.65V16.6097H184.442V22.1654H193.01V26.5616H184.442V33.0866H193.65V37.5174Z" fill="url(#paint5_linear_62:153)"/>
<path d="M216.209 37.5174L214.374 31.4943H205.149L203.315 37.5174H197.534L206.465 12.1097H213.024L221.99 37.5174H216.209ZM213.093 26.9943C211.397 21.5366 210.44 18.45 210.22 17.7347C210.013 17.0193 209.863 16.4539 209.77 16.0385C209.39 17.5154 208.299 21.1674 206.499 26.9943H213.093Z" fill="url(#paint6_linear_62:153)"/>
<path d="M237.712 16.3154C235.693 16.3154 234.129 17.077 233.021 18.6C231.914 20.1116 231.36 22.2231 231.36 24.9347C231.36 30.577 233.477 33.3981 237.712 33.3981C239.489 33.3981 241.641 32.9539 244.168 32.0654V36.5654C242.091 37.4308 239.771 37.8635 237.21 37.8635C233.529 37.8635 230.714 36.75 228.764 34.5231C226.814 32.2847 225.839 29.077 225.839 24.9C225.839 22.2693 226.318 19.9674 227.275 17.9943C228.233 16.0097 229.606 14.4924 231.395 13.4424C233.195 12.3808 235.3 11.85 237.712 11.85C240.17 11.85 242.639 12.4443 245.12 13.6327L243.389 17.9943C242.443 17.5443 241.491 17.152 240.533 16.8174C239.575 16.4827 238.635 16.3154 237.712 16.3154Z" fill="url(#paint7_linear_62:153)"/>
<path d="M274.307 24.8308C274.307 29.0193 273.269 32.2385 271.192 34.4885C269.115 36.7385 266.138 37.8635 262.261 37.8635C258.384 37.8635 255.407 36.7385 253.33 34.4885C251.253 32.2385 250.215 29.0077 250.215 24.7962C250.215 20.5847 251.253 17.3712 253.33 15.1558C255.419 12.9289 258.407 11.8154 262.296 11.8154C266.184 11.8154 269.155 12.9347 271.209 15.1731C273.275 17.4116 274.307 20.6308 274.307 24.8308ZM255.84 24.8308C255.84 27.6577 256.377 29.7866 257.45 31.2174C258.523 32.6481 260.127 33.3635 262.261 33.3635C266.542 33.3635 268.682 30.5193 268.682 24.8308C268.682 19.1308 266.553 16.2808 262.296 16.2808C260.161 16.2808 258.552 17.002 257.467 18.4443C256.382 19.875 255.84 22.0039 255.84 24.8308Z" fill="url(#paint8_linear_62:153)"/>
<path d="M303.772 37.5174H296.953L285.945 18.375H285.789C286.008 21.7558 286.118 24.1674 286.118 25.6097V37.5174H281.324V12.2135H288.091L299.082 31.1654H299.203C299.03 27.877 298.943 25.552 298.943 24.1904V12.2135H303.772V37.5174Z" fill="url(#paint9_linear_62:153)"/>
<defs>
<linearGradient id="paint0_linear_62:153" x1="0" y1="24" x2="48" y2="24" gradientUnits="userSpaceOnUse">
<stop stop-color="#FF512F"/>
<stop offset="1" stop-color="#DD2476"/>
</linearGradient>
<linearGradient id="paint1_linear_62:153" x1="0" y1="24" x2="48" y2="24" gradientUnits="userSpaceOnUse">
<stop stop-color="#FF512F"/>
<stop offset="1" stop-color="#DD2476"/>
</linearGradient>
<linearGradient id="paint2_linear_62:153" x1="0" y1="24" x2="48" y2="24" gradientUnits="userSpaceOnUse">
<stop stop-color="#FF512F"/>
<stop offset="1" stop-color="#DD2476"/>
</linearGradient>
<linearGradient id="paint3_linear_62:153" x1="0" y1="24" x2="48" y2="24" gradientUnits="userSpaceOnUse">
<stop stop-color="#FF512F"/>
<stop offset="1" stop-color="#DD2476"/>
</linearGradient>
<linearGradient id="paint4_linear_62:153" x1="153.489" y1="24.8395" x2="303.772" y2="24.8395" gradientUnits="userSpaceOnUse">
<stop stop-color="#FF512F"/>
<stop offset="1" stop-color="#DD2476"/>
</linearGradient>
<linearGradient id="paint5_linear_62:153" x1="153.489" y1="24.8395" x2="303.772" y2="24.8395" gradientUnits="userSpaceOnUse">
<stop stop-color="#FF512F"/>
<stop offset="1" stop-color="#DD2476"/>
</linearGradient>
<linearGradient id="paint6_linear_62:153" x1="153.489" y1="24.8395" x2="303.772" y2="24.8395" gradientUnits="userSpaceOnUse">
<stop stop-color="#FF512F"/>
<stop offset="1" stop-color="#DD2476"/>
</linearGradient>
<linearGradient id="paint7_linear_62:153" x1="153.489" y1="24.8395" x2="303.772" y2="24.8395" gradientUnits="userSpaceOnUse">
<stop stop-color="#FF512F"/>
<stop offset="1" stop-color="#DD2476"/>
</linearGradient>
<linearGradient id="paint8_linear_62:153" x1="153.489" y1="24.8395" x2="303.772" y2="24.8395" gradientUnits="userSpaceOnUse">
<stop stop-color="#FF512F"/>
<stop offset="1" stop-color="#DD2476"/>
</linearGradient>
<linearGradient id="paint9_linear_62:153" x1="153.489" y1="24.8395" x2="303.772" y2="24.8395" gradientUnits="userSpaceOnUse">
<stop stop-color="#FF512F"/>
<stop offset="1" stop-color="#DD2476"/>
</linearGradient>
</defs>
</svg>
