<svg width="22" height="20" viewBox="0 0 22 20" fill="none" xmlns="http://www.w3.org/2000/svg">
<path d="M13.2541 13.6393C12.8295 13.5862 12.5 13.232 12.5 12.8042C12.5 12.5075 12.6632 12.2386 12.9036 12.0649C14.3668 11.0083 15.5 8.87978 15.5 6.75C15.5 3.0225 15.5 0 11 0C6.5 0 6.5 3.0225 6.5 6.75C6.5 8.87978 7.63321 11.0083 9.09636 12.0649C9.33684 12.2386 9.5 12.5075 9.5 12.8042C9.5 13.232 9.17054 13.5862 8.74595 13.6393C4.58243 14.1594 1.34261 16.0916 0.641312 18.5134C0.48769 19.0439 0.947715 19.5 1.5 19.5H20.5C21.0523 19.5 21.5123 19.0439 21.3587 18.5134C20.6574 16.0916 17.4176 14.1594 13.2541 13.6393Z" fill="#F2F2F2"/>
</svg>
